<svg width="18" height="18" viewBox="0 0 18 18" fill="none" xmlns="http://www.w3.org/2000/svg" class="yxBNXG_spectrum-Icon yxBNXG_spectrum-Icon--sizeM" focusable="false" aria-hidden="true" role="img" style="width: 18px; height: 18px;"><g><path d="M1.5749 6.09414H3.97673C4.28331 7.3813 5.43588 8.34414 6.81538 8.34414C8.19487 8.34414 9.34746 7.3813 9.65402 6.09414H16.4249C16.7975 6.09414 17.0999 5.79179 17.0999 5.41914C17.0999 5.04649 16.7975 4.74414 16.4249 4.74414H9.65402C9.34745 3.45698 8.19487 2.49414 6.81538 2.49414C5.43588 2.49414 4.2833 3.45698 3.97673 4.74414H1.5749C1.20225 4.74414 0.899902 5.04649 0.899902 5.41914C0.899902 5.79179 1.20225 6.09414 1.5749 6.09414ZM6.81538 3.84414C7.68373 3.84414 8.39038 4.55078 8.39038 5.41914C8.39038 6.2875 7.68373 6.99414 6.81538 6.99414C5.94702 6.99414 5.24038 6.2875 5.24038 5.41914C5.24038 4.55078 5.94702 3.84414 6.81538 3.84414Z" fill="#292929"></path><path d="M16.4249 11.9443H14.154C13.8475 10.6572 12.6949 9.69434 11.3154 9.69434C9.93589 9.69434 8.78331 10.6572 8.47674 11.9443H1.5749C1.20225 11.9443 0.899902 12.2467 0.899902 12.6193C0.899902 12.992 1.20225 13.2943 1.5749 13.2943H8.47673C8.78331 14.5815 9.93588 15.5443 11.3154 15.5443C12.6949 15.5443 13.8475 14.5815 14.154 13.2943H16.4249C16.7975 13.2943 17.0999 12.992 17.0999 12.6193C17.0999 12.2467 16.7976 11.9443 16.4249 11.9443ZM11.3154 14.1943C10.447 14.1943 9.74038 13.4877 9.74038 12.6193C9.74038 11.751 10.447 11.0443 11.3154 11.0443C12.1837 11.0443 12.8904 11.751 12.8904 12.6193C12.8904 13.4877 12.1837 14.1943 11.3154 14.1943Z" fill="#292929"></path></g></svg>